<?xml version="1.0" standalone="no"?>
<!DOCTYPE svg PUBLIC "-//W3C//DTD SVG 20010904//EN"
 "http://www.w3.org/TR/2001/REC-SVG-20010904/DTD/svg10.dtd">
<svg version="1.0" xmlns="http://www.w3.org/2000/svg"
 width="248.000000pt" height="248.000000pt" viewBox="0 0 248.000000 248.000000"
 preserveAspectRatio="xMidYMid meet">
<metadata>
Created by potrace 1.14, written by Peter Selinger 2001-2017
</metadata>
<g transform="translate(0.000000,248.000000) scale(0.100000,-0.100000)"
fill="#000000" stroke="none">
<path d="M897 2474 c-1 -1 -33 -4 -72 -7 -76 -7 -159 -29 -216 -58 -54 -27
-128 -115 -165 -194 -53 -116 -69 -206 -69 -400 0 -262 15 -355 78 -480 47
-95 170 -268 262 -370 43 -47 68 -92 61 -108 -2 -7 -5 -4 -5 6 -1 14 -8 18
-33 15 -32 -3 -33 -4 -34 -53 0 -27 1 -56 4 -62 6 -19 62 -17 62 2 0 12 4 13
18 6 14 -7 19 -23 21 -65 l2 -54 -93 -63 c-51 -34 -113 -79 -137 -101 -24 -21
-49 -38 -55 -39 -50 -3 -138 -36 -170 -64 -16 -13 -44 -27 -63 -31 -39 -7 -57
-35 -48 -71 4 -19 11 -24 25 -20 23 6 24 3 10 -23 -6 -12 -6 -29 1 -50 11 -30
14 -31 49 -25 28 5 41 3 47 -8 26 -44 80 -15 90 48 3 22 10 45 15 52 11 14 37
6 58 -18 26 -29 66 -32 94 -7 33 29 26 63 -15 77 -17 6 -29 17 -29 28 0 10 -6
30 -14 45 -11 20 -11 30 -3 40 16 19 89 75 168 130 l66 46 7 -55 c3 -30 13
-67 21 -82 8 -16 17 -70 20 -122 9 -147 11 -163 23 -186 21 -38 103 -102 161
-124 133 -51 327 -18 421 72 50 48 62 90 65 220 1 64 7 125 14 137 13 24 27
108 30 184 1 24 8 28 59 43 80 23 198 73 254 107 26 16 60 31 75 34 15 2 35 7
43 10 8 3 31 8 50 10 52 7 126 33 154 55 25 19 25 27 6 74 -5 11 -11 32 -14
47 -3 15 -14 34 -23 44 -17 16 -17 18 1 28 63 37 85 96 48 129 -32 29 -130 12
-118 -20 4 -8 1 -11 -5 -8 -12 8 -51 -24 -43 -36 3 -5 -1 -6 -9 -4 -18 8 -51
-30 -41 -47 4 -7 4 -10 0 -7 -4 4 -30 -6 -59 -21 -58 -29 -84 -68 -68 -98 6
-11 11 -45 13 -77 l3 -58 -47 -29 c-49 -30 -257 -112 -265 -105 -2 3 -1 21 2
41 5 26 12 36 26 36 11 0 19 -4 19 -10 0 -5 16 -10 35 -10 l36 0 -3 63 c-3 61
-3 62 -33 63 -16 0 -36 -7 -43 -15 -11 -13 -11 -12 -1 9 6 14 56 81 109 150
195 251 251 353 275 495 27 165 32 228 30 360 -4 216 -55 371 -154 473 -102
104 -114 106 -589 107 -217 0 -394 -1 -395 -1z"/>
</g>
</svg>
